<?xml version="1.0" encoding="UTF-8" standalone="no"?>
<!-- Created with Inkscape (http://www.inkscape.org/) -->

<svg
   width="480"
   height="480"
   viewBox="0 0 480 480"
   version="1.1"
   id="svg5"
   inkscape:version="1.1.2 (76b9e6a115, 2022-02-25)"
   sodipodi:docname="track.svg"
   xmlns:inkscape="http://www.inkscape.org/namespaces/inkscape"
   xmlns:sodipodi="http://sodipodi.sourceforge.net/DTD/sodipodi-0.dtd"
   xmlns="http://www.w3.org/2000/svg"
   xmlns:svg="http://www.w3.org/2000/svg">
  <sodipodi:namedview
     id="namedview7"
     pagecolor="#50c450"
     bordercolor="#eeeeee"
     borderopacity="1"
     inkscape:pageshadow="0"
     inkscape:pageopacity="0"
     inkscape:pagecheckerboard="0"
     inkscape:document-units="px"
     showgrid="false"
     units="px"
     width="480px"
     inkscape:zoom="2"
     inkscape:cx="255.75"
     inkscape:cy="208.25"
     inkscape:window-width="1848"
     inkscape:window-height="1136"
     inkscape:window-x="72"
     inkscape:window-y="27"
     inkscape:window-maximized="1"
     inkscape:current-layer="layer1" />
  <defs
     id="defs2" />
  <g
     inkscape:label="Layer 1"
     inkscape:groupmode="layer"
     id="layer1">
    <path
       id="path213"
       style="fill:#ffe6d5;stroke:#000000;stroke-width:1px;stroke-linecap:butt;stroke-linejoin:miter;stroke-opacity:1"
       d="M 483.8418 -5.2148438 L -2.4414062 -1.6777344 L -5.2207031 24.908203 L 39.113281 27.246094 L 50.611328 28.822266 L 50.800781 79.34375 L -4.0175781 77.005859 L -2.5644531 123.80078 L 53.769531 125.82227 L 52.253906 198.25781 L -2.3125 200.4043 L -3.0058594 249.47266 L 52.064453 250.79883 L 49.726562 324.17969 L -0.35351562 324.74805 L -2.4375 374.82812 L 49.412109 381.26953 L 46.658203 449.4375 L -0.076171875 450.13281 L -0.98828125 485.93945 L 488.26367 481.96094 L 485.41992 449.4375 L 451.00195 450.19531 L 451.44336 381.92969 L 484.91602 376.30859 L 484.66211 325.97656 L 452.45508 325.85156 L 453.40234 250.63672 L 484.09375 252.08984 L 484.47266 200.55859 L 454.16016 198.85352 L 454.79102 124.75 L 484.66211 125.19336 L 483.9043 74.230469 L 454.91797 74.419922 L 454.91797 28.128906 L 483.96875 25.035156 L 483.8418 -5.2148438 z M 269.37109 26.707031 L 272.33984 72.490234 L 216.57617 72.427734 L 216.07031 28.980469 L 269.37109 26.707031 z M 161 27.400391 L 162.76758 76.089844 L 107.63477 77.101562 L 107.13086 30.9375 L 161 27.400391 z M 373.51172 27.84375 L 378.50195 69.837891 L 329.11523 70.533203 L 327.85156 32.074219 L 373.51172 27.84375 z M 273.47656 121.55859 L 275.75 187.49023 L 221.375 189.32031 L 221.12305 124.14844 L 223.45898 123.58008 L 273.47656 121.55859 z M 385.63867 123.64258 L 387.72266 190.77344 L 334.35742 185.97461 L 332.9668 123.70703 L 385.63867 123.64258 z M 161.94727 124.7793 L 164.34766 191.2793 L 108.14062 193.10938 L 110.16211 126.61133 L 161.94727 124.7793 z M 279.16016 246.78516 L 282.12891 312.9043 L 233.5 317.83008 L 228.95312 253.47852 L 279.16016 246.78516 z M 388.35352 247.79492 L 393.02734 315.68359 L 343.51367 313.66211 L 339.2832 248.49023 L 388.35352 247.79492 z M 169.27344 250.88867 L 172.74609 317.70312 L 111.55078 319.15625 L 111.42383 252.84766 L 169.27344 250.88867 z M 286.86523 370.24609 L 295.64453 437.94336 L 246.76367 440.78516 L 241.90039 378.01367 L 286.86523 370.24609 z M 392.39453 379.15039 L 394.54297 442.55273 L 352.48242 436.49023 L 351.3457 379.78125 L 392.39453 379.15039 z M 175.9668 379.46484 L 181.14648 445.14258 L 113.63477 447.03711 L 116.03516 384.64453 L 175.9668 379.46484 z " />
  </g>
</svg>
